<svg width="300" height="300" viewBox="0 0 300 300" fill="none" xmlns="http://www.w3.org/2000/svg">
<rect width="300" height="300" rx="20" fill="#121111"/>
<path d="M78.804 168.076C76.148 168.076 73.684 167.644 71.412 166.78C69.172 165.916 67.22 164.7 65.556 163.132C63.924 161.564 62.644 159.724 61.716 157.612C60.82 155.5 60.372 153.196 60.372 150.7C60.372 148.204 60.82 145.9 61.716 143.788C62.644 141.676 63.94 139.836 65.604 138.268C67.268 136.7 69.22 135.484 71.46 134.62C73.7 133.756 76.132 133.324 78.756 133.324C81.412 133.324 83.844 133.756 86.052 134.62C88.292 135.484 90.228 136.7 91.86 138.268C93.524 139.836 94.82 141.676 95.748 143.788C96.676 145.868 97.14 148.172 97.14 150.7C97.14 153.196 96.676 155.516 95.748 157.66C94.82 159.772 93.524 161.612 91.86 163.18C90.228 164.716 88.292 165.916 86.052 166.78C83.844 167.644 81.428 168.076 78.804 168.076ZM78.756 161.452C80.26 161.452 81.636 161.196 82.884 160.684C84.164 160.172 85.284 159.436 86.244 158.476C87.204 157.516 87.94 156.38 88.452 155.068C88.996 153.756 89.268 152.3 89.268 150.7C89.268 149.1 88.996 147.644 88.452 146.332C87.94 145.02 87.204 143.884 86.244 142.924C85.316 141.964 84.212 141.228 82.932 140.716C81.652 140.204 80.26 139.948 78.756 139.948C77.252 139.948 75.86 140.204 74.58 140.716C73.332 141.228 72.228 141.964 71.268 142.924C70.308 143.884 69.556 145.02 69.012 146.332C68.5 147.644 68.244 149.1 68.244 150.7C68.244 152.268 68.5 153.724 69.012 155.068C69.556 156.38 70.292 157.516 71.22 158.476C72.18 159.436 73.3 160.172 74.58 160.684C75.86 161.196 77.252 161.452 78.756 161.452ZM118.152 141.292C120.2 141.292 122.024 141.708 123.624 142.54C125.256 143.34 126.536 144.588 127.464 146.284C128.392 147.948 128.856 150.092 128.856 152.716V167.5H121.368V153.868C121.368 151.788 120.904 150.252 119.976 149.26C119.08 148.268 117.8 147.772 116.136 147.772C114.952 147.772 113.88 148.028 112.92 148.54C111.992 149.02 111.256 149.772 110.712 150.796C110.2 151.82 109.944 153.132 109.944 154.732V167.5H102.456V141.676H109.608V148.828L108.264 146.668C109.192 144.94 110.52 143.612 112.248 142.684C113.976 141.756 115.944 141.292 118.152 141.292ZM144.332 167.884C142.124 167.884 139.996 167.628 137.948 167.116C135.932 166.572 134.332 165.9 133.148 165.1L135.644 159.724C136.828 160.46 138.22 161.068 139.82 161.548C141.452 161.996 143.052 162.22 144.62 162.22C146.348 162.22 147.564 162.012 148.268 161.596C149.004 161.18 149.372 160.604 149.372 159.868C149.372 159.26 149.084 158.812 148.508 158.524C147.964 158.204 147.228 157.964 146.299 157.804C145.372 157.644 144.348 157.484 143.228 157.324C142.14 157.164 141.036 156.956 139.916 156.7C138.796 156.412 137.772 155.996 136.844 155.452C135.916 154.908 135.164 154.172 134.588 153.244C134.044 152.316 133.771 151.116 133.771 149.644C133.771 148.012 134.236 146.572 135.164 145.324C136.124 144.076 137.5 143.1 139.292 142.396C141.084 141.66 143.228 141.292 145.724 141.292C147.484 141.292 149.276 141.484 151.1 141.868C152.924 142.252 154.444 142.812 155.66 143.548L153.164 148.876C151.916 148.14 150.652 147.644 149.372 147.388C148.124 147.1 146.908 146.956 145.724 146.956C144.06 146.956 142.844 147.18 142.076 147.628C141.308 148.076 140.924 148.652 140.924 149.356C140.924 149.996 141.196 150.476 141.74 150.796C142.316 151.116 143.068 151.372 143.996 151.564C144.924 151.756 145.932 151.932 147.02 152.092C148.14 152.22 149.26 152.428 150.38 152.716C151.5 153.004 152.508 153.42 153.404 153.964C154.332 154.476 155.084 155.196 155.66 156.124C156.236 157.02 156.524 158.204 156.524 159.676C156.524 161.276 156.044 162.7 155.084 163.948C154.124 165.164 152.732 166.124 150.908 166.828C149.116 167.532 146.924 167.884 144.332 167.884ZM171.704 167.884C168.664 167.884 166.296 167.116 164.6 165.58C162.904 164.012 162.056 161.692 162.056 158.62V135.964H169.544V158.524C169.544 159.612 169.832 160.46 170.408 161.068C170.984 161.644 171.768 161.932 172.76 161.932C173.944 161.932 174.952 161.612 175.784 160.972L177.8 166.252C177.032 166.796 176.104 167.212 175.016 167.5C173.96 167.756 172.856 167.884 171.704 167.884ZM158.072 148.012V142.252H175.976V148.012H158.072ZM194.022 167.884C191.078 167.884 188.486 167.308 186.246 166.156C184.038 165.004 182.326 163.436 181.11 161.452C179.894 159.436 179.286 157.148 179.286 154.588C179.286 151.996 179.878 149.708 181.062 147.724C182.278 145.708 183.926 144.14 186.006 143.02C188.086 141.868 190.438 141.292 193.062 141.292C195.59 141.292 197.862 141.836 199.878 142.924C201.926 143.98 203.542 145.516 204.726 147.532C205.91 149.516 206.502 151.9 206.502 154.684C206.502 154.972 206.486 155.308 206.454 155.692C206.422 156.044 206.39 156.38 206.358 156.7H185.382V152.332H202.422L199.542 153.628C199.542 152.284 199.27 151.116 198.726 150.124C198.182 149.132 197.43 148.364 196.47 147.82C195.51 147.244 194.39 146.956 193.11 146.956C191.83 146.956 190.694 147.244 189.702 147.82C188.742 148.364 187.99 149.148 187.446 150.172C186.902 151.164 186.63 152.348 186.63 153.724V154.876C186.63 156.284 186.934 157.532 187.542 158.62C188.182 159.676 189.062 160.492 190.182 161.068C191.334 161.612 192.678 161.884 194.214 161.884C195.59 161.884 196.79 161.676 197.814 161.26C198.87 160.844 199.83 160.22 200.694 159.388L204.678 163.708C203.494 165.052 202.006 166.092 200.214 166.828C198.422 167.532 196.358 167.884 194.022 167.884ZM226.751 167.884C224.575 167.884 222.671 167.404 221.039 166.444C219.407 165.484 218.127 164.028 217.199 162.076C216.303 160.092 215.855 157.596 215.855 154.588C215.855 151.548 216.287 149.052 217.151 147.1C218.015 145.148 219.263 143.692 220.895 142.732C222.527 141.772 224.479 141.292 226.751 141.292C229.183 141.292 231.359 141.852 233.279 142.972C235.231 144.06 236.767 145.596 237.887 147.58C239.039 149.564 239.615 151.9 239.615 154.588C239.615 157.308 239.039 159.66 237.887 161.644C236.767 163.628 235.231 165.164 233.279 166.252C231.359 167.34 229.183 167.884 226.751 167.884ZM211.487 176.812V141.676H218.639V146.956L218.495 154.636L218.975 162.268V176.812H211.487ZM225.455 161.74C226.703 161.74 227.807 161.452 228.767 160.876C229.759 160.3 230.543 159.484 231.119 158.428C231.727 157.34 232.031 156.06 232.031 154.588C232.031 153.084 231.727 151.804 231.119 150.748C230.543 149.692 229.759 148.876 228.767 148.3C227.807 147.724 226.703 147.436 225.455 147.436C224.207 147.436 223.087 147.724 222.095 148.3C221.103 148.876 220.319 149.692 219.743 150.748C219.167 151.804 218.879 153.084 218.879 154.588C218.879 156.06 219.167 157.34 219.743 158.428C220.319 159.484 221.103 160.3 222.095 160.876C223.087 161.452 224.207 161.74 225.455 161.74Z" fill="white"/>
</svg>
